<svg id="visual" viewBox="0 0 960 300" width="960" height="300" xmlns="http://www.w3.org/2000/svg" xmlns:xlink="http://www.w3.org/1999/xlink" version="1.1"><path d="M0 148L12.3 147.3C24.7 146.7 49.3 145.3 74 145.5C98.7 145.7 123.3 147.3 148 149.5C172.7 151.7 197.3 154.3 221.8 155.5C246.3 156.7 270.7 156.3 295.2 155.5C319.7 154.7 344.3 153.3 369 152.2C393.7 151 418.3 150 443 150.2C467.7 150.3 492.3 151.7 517 150.2C541.7 148.7 566.3 144.3 591 144C615.7 143.7 640.3 147.3 664.8 149.3C689.3 151.3 713.7 151.7 738.2 151.7C762.7 151.7 787.3 151.3 812 151.2C836.7 151 861.3 151 886 150.7C910.7 150.3 935.3 149.7 947.7 149.3L960 149L960 0L947.7 0C935.3 0 910.7 0 886 0C861.3 0 836.7 0 812 0C787.3 0 762.7 0 738.2 0C713.7 0 689.3 0 664.8 0C640.3 0 615.7 0 591 0C566.3 0 541.7 0 517 0C492.3 0 467.7 0 443 0C418.3 0 393.7 0 369 0C344.3 0 319.7 0 295.2 0C270.7 0 246.3 0 221.8 0C197.3 0 172.7 0 148 0C123.3 0 98.7 0 74 0C49.3 0 24.7 0 12.3 0L0 0Z" fill="#cc3333"></path><path d="M0 132L12.3 129.5C24.7 127 49.3 122 74 119.7C98.7 117.3 123.3 117.7 148 119.5C172.7 121.3 197.3 124.7 221.8 125.5C246.3 126.3 270.7 124.7 295.2 123.2C319.7 121.7 344.3 120.3 369 123C393.7 125.7 418.3 132.3 443 133.5C467.7 134.7 492.3 130.3 517 129.3C541.7 128.3 566.3 130.7 591 130.8C615.7 131 640.3 129 664.8 129.8C689.3 130.7 713.7 134.3 738.2 133.7C762.7 133 787.3 128 812 124.7C836.7 121.3 861.3 119.7 886 121.2C910.7 122.7 935.3 127.3 947.7 129.7L960 132L960 0L947.7 0C935.3 0 910.7 0 886 0C861.3 0 836.7 0 812 0C787.3 0 762.7 0 738.2 0C713.7 0 689.3 0 664.8 0C640.3 0 615.7 0 591 0C566.3 0 541.7 0 517 0C492.3 0 467.7 0 443 0C418.3 0 393.7 0 369 0C344.3 0 319.7 0 295.2 0C270.7 0 246.3 0 221.8 0C197.3 0 172.7 0 148 0C123.3 0 98.7 0 74 0C49.3 0 24.7 0 12.3 0L0 0Z" fill="#d23466"></path><path d="M0 103L12.3 103C24.7 103 49.3 103 74 103.2C98.7 103.3 123.3 103.7 148 105.5C172.7 107.3 197.3 110.7 221.8 110C246.3 109.3 270.7 104.7 295.2 102C319.7 99.3 344.3 98.7 369 98.8C393.7 99 418.3 100 443 100.5C467.7 101 492.3 101 517 103.7C541.7 106.3 566.3 111.7 591 112.5C615.7 113.3 640.3 109.7 664.8 108C689.3 106.3 713.7 106.7 738.2 105.3C762.7 104 787.3 101 812 101.2C836.7 101.3 861.3 104.7 886 105.7C910.7 106.7 935.3 105.3 947.7 104.7L960 104L960 0L947.7 0C935.3 0 910.7 0 886 0C861.3 0 836.7 0 812 0C787.3 0 762.7 0 738.2 0C713.7 0 689.3 0 664.8 0C640.3 0 615.7 0 591 0C566.3 0 541.7 0 517 0C492.3 0 467.7 0 443 0C418.3 0 393.7 0 369 0C344.3 0 319.7 0 295.2 0C270.7 0 246.3 0 221.8 0C197.3 0 172.7 0 148 0C123.3 0 98.7 0 74 0C49.3 0 24.7 0 12.3 0L0 0Z" fill="#c64a94"></path><path d="M0 85L12.3 86C24.7 87 49.3 89 74 89.2C98.7 89.3 123.3 87.7 148 87.7C172.7 87.7 197.3 89.3 221.8 88.5C246.3 87.7 270.7 84.3 295.2 84.7C319.7 85 344.3 89 369 90C393.7 91 418.3 89 443 87.7C467.7 86.3 492.3 85.7 517 87C541.7 88.3 566.3 91.7 591 90.7C615.7 89.7 640.3 84.3 664.8 83.8C689.3 83.3 713.7 87.7 738.2 89.8C762.7 92 787.3 92 812 89.5C836.7 87 861.3 82 886 79.3C910.7 76.7 935.3 76.3 947.7 76.2L960 76L960 0L947.7 0C935.3 0 910.7 0 886 0C861.3 0 836.7 0 812 0C787.3 0 762.7 0 738.2 0C713.7 0 689.3 0 664.8 0C640.3 0 615.7 0 591 0C566.3 0 541.7 0 517 0C492.3 0 467.7 0 443 0C418.3 0 393.7 0 369 0C344.3 0 319.7 0 295.2 0C270.7 0 246.3 0 221.8 0C197.3 0 172.7 0 148 0C123.3 0 98.7 0 74 0C49.3 0 24.7 0 12.3 0L0 0Z" fill="#a964b8"></path><path d="M0 55L12.3 58.2C24.7 61.3 49.3 67.7 74 68.5C98.7 69.3 123.3 64.7 148 64C172.7 63.3 197.3 66.7 221.8 65.8C246.3 65 270.7 60 295.2 60C319.7 60 344.3 65 369 66.5C393.7 68 418.3 66 443 65.2C467.7 64.3 492.3 64.7 517 65.5C541.7 66.3 566.3 67.7 591 68C615.7 68.3 640.3 67.7 664.8 68.2C689.3 68.7 713.7 70.3 738.2 68.8C762.7 67.3 787.3 62.7 812 62C836.7 61.3 861.3 64.7 886 67.3C910.7 70 935.3 72 947.7 73L960 74L960 0L947.7 0C935.3 0 910.7 0 886 0C861.3 0 836.7 0 812 0C787.3 0 762.7 0 738.2 0C713.7 0 689.3 0 664.8 0C640.3 0 615.7 0 591 0C566.3 0 541.7 0 517 0C492.3 0 467.7 0 443 0C418.3 0 393.7 0 369 0C344.3 0 319.7 0 295.2 0C270.7 0 246.3 0 221.8 0C197.3 0 172.7 0 148 0C123.3 0 98.7 0 74 0C49.3 0 24.7 0 12.3 0L0 0Z" fill="#817bcd"></path><path d="M0 41L12.3 40.2C24.7 39.3 49.3 37.7 74 36.8C98.7 36 123.3 36 148 35.8C172.7 35.7 197.3 35.3 221.8 37.8C246.3 40.3 270.7 45.7 295.2 47.8C319.7 50 344.3 49 369 47.8C393.7 46.7 418.3 45.3 443 44.3C467.7 43.3 492.3 42.7 517 41.5C541.7 40.3 566.3 38.7 591 39.3C615.7 40 640.3 43 664.8 44.7C689.3 46.3 713.7 46.7 738.2 47.3C762.7 48 787.3 49 812 49.5C836.7 50 861.3 50 886 48C910.7 46 935.3 42 947.7 40L960 38L960 0L947.7 0C935.3 0 910.7 0 886 0C861.3 0 836.7 0 812 0C787.3 0 762.7 0 738.2 0C713.7 0 689.3 0 664.8 0C640.3 0 615.7 0 591 0C566.3 0 541.7 0 517 0C492.3 0 467.7 0 443 0C418.3 0 393.7 0 369 0C344.3 0 319.7 0 295.2 0C270.7 0 246.3 0 221.8 0C197.3 0 172.7 0 148 0C123.3 0 98.7 0 74 0C49.3 0 24.7 0 12.3 0L0 0Z" fill="#558cd3"></path><path d="M0 24L12.3 23.8C24.7 23.7 49.3 23.3 74 24.3C98.7 25.3 123.3 27.7 148 27.5C172.7 27.3 197.3 24.7 221.8 24.2C246.3 23.7 270.7 25.3 295.2 25C319.7 24.7 344.3 22.3 369 20C393.7 17.7 418.3 15.3 443 16.7C467.7 18 492.3 23 517 23.5C541.7 24 566.3 20 591 19C615.7 18 640.3 20 664.8 19.7C689.3 19.3 713.7 16.7 738.2 17.5C762.7 18.3 787.3 22.7 812 23.5C836.7 24.3 861.3 21.7 886 19.3C910.7 17 935.3 15 947.7 14L960 13L960 0L947.7 0C935.3 0 910.7 0 886 0C861.3 0 836.7 0 812 0C787.3 0 762.7 0 738.2 0C713.7 0 689.3 0 664.8 0C640.3 0 615.7 0 591 0C566.3 0 541.7 0 517 0C492.3 0 467.7 0 443 0C418.3 0 393.7 0 369 0C344.3 0 319.7 0 295.2 0C270.7 0 246.3 0 221.8 0C197.3 0 172.7 0 148 0C123.3 0 98.7 0 74 0C49.3 0 24.7 0 12.3 0L0 0Z" fill="#3399cc"></path></svg>