<svg id="visual" viewBox="0 0 960 540" width="960" height="540" xmlns="http://www.w3.org/2000/svg" xmlns:xlink="http://www.w3.org/1999/xlink" version="1.1"><path d="M0 268L12.3 266.7C24.7 265.3 49.3 262.7 74 262.8C98.7 263 123.3 266 148 269.8C172.7 273.7 197.3 278.3 221.8 280.3C246.3 282.3 270.7 281.7 295.2 280.3C319.7 279 344.3 277 369 275C393.7 273 418.3 271 443 271C467.7 271 492.3 273 517 270.2C541.7 267.3 566.3 259.7 591 259.2C615.7 258.7 640.3 265.3 664.8 269C689.3 272.7 713.7 273.3 738.2 273.5C762.7 273.7 787.3 273.3 812 273.2C836.7 273 861.3 273 886 272.3C910.7 271.7 935.3 270.3 947.7 269.7L960 269L960 0L947.7 0C935.3 0 910.7 0 886 0C861.3 0 836.7 0 812 0C787.3 0 762.7 0 738.2 0C713.7 0 689.3 0 664.8 0C640.3 0 615.7 0 591 0C566.3 0 541.7 0 517 0C492.3 0 467.7 0 443 0C418.3 0 393.7 0 369 0C344.3 0 319.7 0 295.2 0C270.7 0 246.3 0 221.8 0C197.3 0 172.7 0 148 0C123.3 0 98.7 0 74 0C49.3 0 24.7 0 12.3 0L0 0Z" fill="#cc3333"></path><path d="M0 238L12.3 233.7C24.7 229.3 49.3 220.7 74 216.5C98.7 212.3 123.3 212.7 148 215.8C172.7 219 197.3 225 221.8 226.3C246.3 227.7 270.7 224.3 295.2 221.7C319.7 219 344.3 217 369 221.8C393.7 226.7 418.3 238.3 443 240.5C467.7 242.7 492.3 235.3 517 233.7C541.7 232 566.3 236 591 236.2C615.7 236.3 640.3 232.7 664.8 234.2C689.3 235.7 713.7 242.3 738.2 241.3C762.7 240.3 787.3 231.7 812 225.5C836.7 219.3 861.3 215.7 886 218.2C910.7 220.7 935.3 229.3 947.7 233.7L960 238L960 0L947.7 0C935.3 0 910.7 0 886 0C861.3 0 836.7 0 812 0C787.3 0 762.7 0 738.2 0C713.7 0 689.3 0 664.8 0C640.3 0 615.7 0 591 0C566.3 0 541.7 0 517 0C492.3 0 467.7 0 443 0C418.3 0 393.7 0 369 0C344.3 0 319.7 0 295.2 0C270.7 0 246.3 0 221.8 0C197.3 0 172.7 0 148 0C123.3 0 98.7 0 74 0C49.3 0 24.7 0 12.3 0L0 0Z" fill="#d23466"></path><path d="M0 187L12.3 186.8C24.7 186.7 49.3 186.3 74 186.5C98.7 186.7 123.3 187.3 148 190.7C172.7 194 197.3 200 221.8 198.8C246.3 197.7 270.7 189.3 295.2 184.7C319.7 180 344.3 179 369 179.2C393.7 179.3 418.3 180.7 443 181.3C467.7 182 492.3 182 517 187C541.7 192 566.3 202 591 203.7C615.7 205.3 640.3 198.7 664.8 195.5C689.3 192.3 713.7 192.7 738.2 190.3C762.7 188 787.3 183 812 183.3C836.7 183.7 861.3 189.3 886 190.8C910.7 192.3 935.3 189.7 947.7 188.3L960 187L960 0L947.7 0C935.3 0 910.7 0 886 0C861.3 0 836.7 0 812 0C787.3 0 762.7 0 738.2 0C713.7 0 689.3 0 664.8 0C640.3 0 615.7 0 591 0C566.3 0 541.7 0 517 0C492.3 0 467.7 0 443 0C418.3 0 393.7 0 369 0C344.3 0 319.7 0 295.2 0C270.7 0 246.3 0 221.8 0C197.3 0 172.7 0 148 0C123.3 0 98.7 0 74 0C49.3 0 24.7 0 12.3 0L0 0Z" fill="#c64a94"></path><path d="M0 153L12.3 154.8C24.7 156.7 49.3 160.3 74 160.8C98.7 161.3 123.3 158.7 148 158.8C172.7 159 197.3 162 221.8 160.3C246.3 158.7 270.7 152.3 295.2 152.8C319.7 153.3 344.3 160.7 369 162.7C393.7 164.7 418.3 161.3 443 158.8C467.7 156.3 492.3 154.7 517 157C541.7 159.3 566.3 165.7 591 164.2C615.7 162.7 640.3 153.3 664.8 152.3C689.3 151.3 713.7 158.7 738.2 162.5C762.7 166.3 787.3 166.7 812 162.2C836.7 157.7 861.3 148.3 886 143.5C910.7 138.7 935.3 138.3 947.7 138.2L960 138L960 0L947.7 0C935.3 0 910.7 0 886 0C861.3 0 836.7 0 812 0C787.3 0 762.7 0 738.2 0C713.7 0 689.3 0 664.8 0C640.3 0 615.7 0 591 0C566.3 0 541.7 0 517 0C492.3 0 467.7 0 443 0C418.3 0 393.7 0 369 0C344.3 0 319.7 0 295.2 0C270.7 0 246.3 0 221.8 0C197.3 0 172.7 0 148 0C123.3 0 98.7 0 74 0C49.3 0 24.7 0 12.3 0L0 0Z" fill="#a964b8"></path><path d="M0 99L12.3 104.8C24.7 110.7 49.3 122.3 74 124C98.7 125.7 123.3 117.3 148 116C172.7 114.7 197.3 120.3 221.8 119C246.3 117.7 270.7 109.3 295.2 109.5C319.7 109.7 344.3 118.3 369 121C393.7 123.7 418.3 120.3 443 118.7C467.7 117 492.3 117 517 118.3C541.7 119.7 566.3 122.3 591 123C615.7 123.7 640.3 122.3 664.8 123.3C689.3 124.3 713.7 127.7 738.2 125C762.7 122.3 787.3 113.7 812 112.3C836.7 111 861.3 117 886 121.8C910.7 126.7 935.3 130.3 947.7 132.2L960 134L960 0L947.7 0C935.3 0 910.7 0 886 0C861.3 0 836.7 0 812 0C787.3 0 762.7 0 738.2 0C713.7 0 689.3 0 664.8 0C640.3 0 615.7 0 591 0C566.3 0 541.7 0 517 0C492.3 0 467.7 0 443 0C418.3 0 393.7 0 369 0C344.3 0 319.7 0 295.2 0C270.7 0 246.3 0 221.8 0C197.3 0 172.7 0 148 0C123.3 0 98.7 0 74 0C49.3 0 24.7 0 12.3 0L0 0Z" fill="#817bcd"></path><path d="M0 74L12.3 72.7C24.7 71.3 49.3 68.7 74 67.3C98.7 66 123.3 66 148 65.8C172.7 65.7 197.3 65.3 221.8 69.8C246.3 74.3 270.7 83.7 295.2 87.3C319.7 91 344.3 89 369 86.8C393.7 84.7 418.3 82.3 443 80.7C467.7 79 492.3 78 517 75.8C541.7 73.7 566.3 70.3 591 71.5C615.7 72.7 640.3 78.3 664.8 81.5C689.3 84.7 713.7 85.3 738.2 86.7C762.7 88 787.3 90 812 91C836.7 92 861.3 92 886 88.2C910.7 84.3 935.3 76.7 947.7 72.8L960 69L960 0L947.7 0C935.3 0 910.7 0 886 0C861.3 0 836.7 0 812 0C787.3 0 762.7 0 738.2 0C713.7 0 689.3 0 664.8 0C640.3 0 615.7 0 591 0C566.3 0 541.7 0 517 0C492.3 0 467.7 0 443 0C418.3 0 393.7 0 369 0C344.3 0 319.7 0 295.2 0C270.7 0 246.3 0 221.8 0C197.3 0 172.7 0 148 0C123.3 0 98.7 0 74 0C49.3 0 24.7 0 12.3 0L0 0Z" fill="#558cd3"></path><path d="M0 44L12.3 43.7C24.7 43.3 49.3 42.7 74 44.3C98.7 46 123.3 50 148 49.8C172.7 49.7 197.3 45.3 221.8 44.5C246.3 43.7 270.7 46.3 295.2 45.8C319.7 45.3 344.3 41.7 369 37.5C393.7 33.3 418.3 28.7 443 30.8C467.7 33 492.3 42 517 43C541.7 44 566.3 37 591 35.2C615.7 33.3 640.3 36.7 664.8 36.2C689.3 35.7 713.7 31.3 738.2 32.8C762.7 34.3 787.3 41.7 812 43C836.7 44.3 861.3 39.7 886 35.5C910.7 31.3 935.3 27.7 947.7 25.8L960 24L960 0L947.7 0C935.3 0 910.7 0 886 0C861.3 0 836.7 0 812 0C787.3 0 762.7 0 738.2 0C713.7 0 689.3 0 664.8 0C640.3 0 615.7 0 591 0C566.3 0 541.7 0 517 0C492.3 0 467.7 0 443 0C418.3 0 393.7 0 369 0C344.3 0 319.7 0 295.2 0C270.7 0 246.3 0 221.8 0C197.3 0 172.7 0 148 0C123.3 0 98.7 0 74 0C49.3 0 24.7 0 12.3 0L0 0Z" fill="#3399cc"></path></svg>